<mxfile host="Electron" modified="2024-07-19T13:29:44.072Z" agent="Mozilla/5.0 (Windows NT 10.0; Win64; x64) AppleWebKit/537.36 (KHTML, like Gecko) draw.io/22.0.3 Chrome/114.0.5735.289 Electron/25.8.4 Safari/537.36" etag="QCPOyib8ky46K10GCHlX" version="22.0.3" type="device">
  <diagram name="Page-1" id="oC_vKdF35f0Wkd4ZTCb7">
    <mxGraphModel dx="1275" dy="1509" grid="1" gridSize="10" guides="1" tooltips="1" connect="1" arrows="1" fold="1" page="1" pageScale="1" pageWidth="500" pageHeight="420" math="0" shadow="0">
      <root>
        <mxCell id="0" />
        <mxCell id="1" parent="0" />
        <mxCell id="ydAQ1urp5yznKoa1_box-87" value="function-statement" style="rounded=0;whiteSpace=wrap;html=1;verticalAlign=top;spacing=-3;" vertex="1" parent="1">
          <mxGeometry x="57.5" y="-140" width="732.5" height="760" as="geometry" />
        </mxCell>
        <mxCell id="ydAQ1urp5yznKoa1_box-84" value="block-statement" style="rounded=0;whiteSpace=wrap;html=1;verticalAlign=top;spacing=-3;" vertex="1" parent="1">
          <mxGeometry x="72.5" y="-30" width="697.5" height="610" as="geometry" />
        </mxCell>
        <mxCell id="ydAQ1urp5yznKoa1_box-83" value="function-declaration" style="rounded=0;whiteSpace=wrap;html=1;verticalAlign=top;spacing=-3;" vertex="1" parent="1">
          <mxGeometry x="72.5" y="-120" width="265" height="80" as="geometry" />
        </mxCell>
        <mxCell id="ydAQ1urp5yznKoa1_box-74" value="statement" style="rounded=0;whiteSpace=wrap;html=1;verticalAlign=top;spacing=-3;" vertex="1" parent="1">
          <mxGeometry x="90" y="490" width="140" height="80" as="geometry" />
        </mxCell>
        <mxCell id="ydAQ1urp5yznKoa1_box-69" value="declaration-statement" style="rounded=0;whiteSpace=wrap;html=1;verticalAlign=top;spacing=-3;" vertex="1" parent="1">
          <mxGeometry x="90" y="10" width="660" height="110" as="geometry" />
        </mxCell>
        <mxCell id="ydAQ1urp5yznKoa1_box-19" value="iteration-statement" style="rounded=0;whiteSpace=wrap;html=1;verticalAlign=top;spacing=-3;" vertex="1" parent="1">
          <mxGeometry x="90" y="130" width="660" height="350" as="geometry" />
        </mxCell>
        <mxCell id="ydAQ1urp5yznKoa1_box-47" value="block-statement" style="rounded=0;whiteSpace=wrap;html=1;verticalAlign=top;spacing=-3;" vertex="1" parent="1">
          <mxGeometry x="167.5" y="240" width="477.5" height="230" as="geometry" />
        </mxCell>
        <mxCell id="ydAQ1urp5yznKoa1_box-67" value="statement" style="rounded=0;whiteSpace=wrap;html=1;verticalAlign=top;spacing=-3;" vertex="1" parent="1">
          <mxGeometry x="195" y="260" width="420" height="190" as="geometry" />
        </mxCell>
        <mxCell id="ydAQ1urp5yznKoa1_box-54" value="parameters-list" style="rounded=0;whiteSpace=wrap;html=1;verticalAlign=top;spacing=-3;" vertex="1" parent="1">
          <mxGeometry x="325" y="290" width="240" height="150" as="geometry" />
        </mxCell>
        <mxCell id="ydAQ1urp5yznKoa1_box-66" value="parameter" style="rounded=0;whiteSpace=wrap;html=1;verticalAlign=top;spacing=-3;" vertex="1" parent="1">
          <mxGeometry x="480" y="310" width="67.5" height="120" as="geometry" />
        </mxCell>
        <mxCell id="ydAQ1urp5yznKoa1_box-55" value="parameter" style="rounded=0;whiteSpace=wrap;html=1;verticalAlign=top;spacing=-3;" vertex="1" parent="1">
          <mxGeometry x="337.5" y="310" width="120" height="120" as="geometry" />
        </mxCell>
        <mxCell id="ydAQ1urp5yznKoa1_box-58" value="string-litteral" style="rounded=0;whiteSpace=wrap;html=1;verticalAlign=top;spacing=-3;" vertex="1" parent="1">
          <mxGeometry x="347.5" y="338" width="100" height="82" as="geometry" />
        </mxCell>
        <mxCell id="ydAQ1urp5yznKoa1_box-62" value="string" style="rounded=0;whiteSpace=wrap;html=1;verticalAlign=top;spacing=-3;" vertex="1" parent="1">
          <mxGeometry x="377.5" y="360" width="40" height="50" as="geometry" />
        </mxCell>
        <mxCell id="ydAQ1urp5yznKoa1_box-18" value="expression" style="rounded=0;whiteSpace=wrap;html=1;verticalAlign=top;spacing=-3;" vertex="1" parent="1">
          <mxGeometry x="215" y="30" width="375" height="80" as="geometry" />
        </mxCell>
        <mxCell id="ydAQ1urp5yznKoa1_box-10" value="number" style="rounded=0;whiteSpace=wrap;html=1;verticalAlign=top;spacing=-3;" vertex="1" parent="1">
          <mxGeometry x="380" y="50" width="50" height="50" as="geometry" />
        </mxCell>
        <mxCell id="ydAQ1urp5yznKoa1_box-5" value="identifier" style="rounded=0;whiteSpace=wrap;html=1;verticalAlign=top;spacing=-3;" vertex="1" parent="1">
          <mxGeometry x="220" y="50" width="80" height="50" as="geometry" />
        </mxCell>
        <mxCell id="ydAQ1urp5yznKoa1_box-3" value="type" style="rounded=0;whiteSpace=wrap;html=1;verticalAlign=top;spacing=-3;" vertex="1" parent="1">
          <mxGeometry x="100" y="50" width="110" height="50" as="geometry" />
        </mxCell>
        <mxCell id="ydAQ1urp5yznKoa1_box-1" value="const" style="rounded=0;whiteSpace=wrap;html=1;fillColor=#d5e8d4;strokeColor=#82b366;" vertex="1" parent="1">
          <mxGeometry x="110" y="70" width="40" height="20" as="geometry" />
        </mxCell>
        <mxCell id="ydAQ1urp5yznKoa1_box-2" value="int" style="rounded=0;whiteSpace=wrap;html=1;fillColor=#d5e8d4;strokeColor=#82b366;" vertex="1" parent="1">
          <mxGeometry x="160" y="70" width="40" height="20" as="geometry" />
        </mxCell>
        <mxCell id="ydAQ1urp5yznKoa1_box-4" value="n" style="rounded=0;whiteSpace=wrap;html=1;fillColor=#dae8fc;strokeColor=#6c8ebf;" vertex="1" parent="1">
          <mxGeometry x="230" y="70" width="60" height="20" as="geometry" />
        </mxCell>
        <mxCell id="ydAQ1urp5yznKoa1_box-7" value="23" style="rounded=0;whiteSpace=wrap;html=1;fillColor=#fff2cc;strokeColor=#d6b656;" vertex="1" parent="1">
          <mxGeometry x="390" y="70" width="30" height="20" as="geometry" />
        </mxCell>
        <mxCell id="ydAQ1urp5yznKoa1_box-11" value="operator" style="rounded=0;whiteSpace=wrap;html=1;verticalAlign=top;spacing=-3;" vertex="1" parent="1">
          <mxGeometry x="310" y="50" width="60" height="50" as="geometry" />
        </mxCell>
        <mxCell id="ydAQ1urp5yznKoa1_box-12" value="=" style="rounded=0;whiteSpace=wrap;html=1;fillColor=#e1d5e7;strokeColor=#9673a6;" vertex="1" parent="1">
          <mxGeometry x="320" y="70" width="40" height="20" as="geometry" />
        </mxCell>
        <mxCell id="ydAQ1urp5yznKoa1_box-13" value="number" style="rounded=0;whiteSpace=wrap;html=1;verticalAlign=top;spacing=-3;" vertex="1" parent="1">
          <mxGeometry x="510" y="50" width="50" height="50" as="geometry" />
        </mxCell>
        <mxCell id="ydAQ1urp5yznKoa1_box-14" value="42" style="rounded=0;whiteSpace=wrap;html=1;fillColor=#fff2cc;strokeColor=#d6b656;" vertex="1" parent="1">
          <mxGeometry x="520" y="70" width="30" height="20" as="geometry" />
        </mxCell>
        <mxCell id="ydAQ1urp5yznKoa1_box-15" value="operator" style="rounded=0;whiteSpace=wrap;html=1;verticalAlign=top;spacing=-3;" vertex="1" parent="1">
          <mxGeometry x="440" y="50" width="60" height="50" as="geometry" />
        </mxCell>
        <mxCell id="ydAQ1urp5yznKoa1_box-16" value="+" style="rounded=0;whiteSpace=wrap;html=1;fillColor=#e1d5e7;strokeColor=#9673a6;" vertex="1" parent="1">
          <mxGeometry x="450" y="70" width="40" height="20" as="geometry" />
        </mxCell>
        <mxCell id="ydAQ1urp5yznKoa1_box-17" value=";" style="rounded=0;whiteSpace=wrap;html=1;" vertex="1" parent="1">
          <mxGeometry x="570" y="70" width="10" height="20" as="geometry" />
        </mxCell>
        <mxCell id="ydAQ1urp5yznKoa1_box-20" value="for" style="rounded=0;whiteSpace=wrap;html=1;fillColor=#d5e8d4;strokeColor=#82b366;" vertex="1" parent="1">
          <mxGeometry x="100" y="190" width="40" height="20" as="geometry" />
        </mxCell>
        <mxCell id="ydAQ1urp5yznKoa1_box-21" value="(" style="rounded=0;whiteSpace=wrap;html=1;" vertex="1" parent="1">
          <mxGeometry x="150" y="190" width="10" height="20" as="geometry" />
        </mxCell>
        <mxCell id="ydAQ1urp5yznKoa1_box-22" value="expression" style="rounded=0;whiteSpace=wrap;html=1;verticalAlign=top;spacing=-3;" vertex="1" parent="1">
          <mxGeometry x="167.5" y="150" width="180" height="80" as="geometry" />
        </mxCell>
        <mxCell id="ydAQ1urp5yznKoa1_box-23" value=";" style="rounded=0;whiteSpace=wrap;html=1;" vertex="1" parent="1">
          <mxGeometry x="360" y="190" width="10" height="20" as="geometry" />
        </mxCell>
        <mxCell id="ydAQ1urp5yznKoa1_box-24" value="number" style="rounded=0;whiteSpace=wrap;html=1;verticalAlign=top;spacing=-3;" vertex="1" parent="1">
          <mxGeometry x="292.5" y="170" width="50" height="50" as="geometry" />
        </mxCell>
        <mxCell id="ydAQ1urp5yznKoa1_box-25" value="identifier" style="rounded=0;whiteSpace=wrap;html=1;verticalAlign=top;spacing=-3;" vertex="1" parent="1">
          <mxGeometry x="172.5" y="170" width="55" height="50" as="geometry" />
        </mxCell>
        <mxCell id="ydAQ1urp5yznKoa1_box-26" value="i" style="rounded=0;whiteSpace=wrap;html=1;fillColor=#dae8fc;strokeColor=#6c8ebf;" vertex="1" parent="1">
          <mxGeometry x="182.5" y="190" width="35" height="20" as="geometry" />
        </mxCell>
        <mxCell id="ydAQ1urp5yznKoa1_box-27" value="0" style="rounded=0;whiteSpace=wrap;html=1;fillColor=#fff2cc;strokeColor=#d6b656;" vertex="1" parent="1">
          <mxGeometry x="302.5" y="190" width="30" height="20" as="geometry" />
        </mxCell>
        <mxCell id="ydAQ1urp5yznKoa1_box-28" value="operator" style="rounded=0;whiteSpace=wrap;html=1;verticalAlign=top;spacing=-3;" vertex="1" parent="1">
          <mxGeometry x="232.5" y="170" width="55" height="50" as="geometry" />
        </mxCell>
        <mxCell id="ydAQ1urp5yznKoa1_box-29" value="=" style="rounded=0;whiteSpace=wrap;html=1;fillColor=#e1d5e7;strokeColor=#9673a6;" vertex="1" parent="1">
          <mxGeometry x="242.5" y="190" width="35" height="20" as="geometry" />
        </mxCell>
        <mxCell id="ydAQ1urp5yznKoa1_box-30" value="expression" style="rounded=0;whiteSpace=wrap;html=1;verticalAlign=top;spacing=-3;" vertex="1" parent="1">
          <mxGeometry x="380" y="150" width="180" height="80" as="geometry" />
        </mxCell>
        <mxCell id="ydAQ1urp5yznKoa1_box-31" value="number" style="rounded=0;whiteSpace=wrap;html=1;verticalAlign=top;spacing=-3;" vertex="1" parent="1">
          <mxGeometry x="505" y="170" width="50" height="50" as="geometry" />
        </mxCell>
        <mxCell id="ydAQ1urp5yznKoa1_box-32" value="identifier" style="rounded=0;whiteSpace=wrap;html=1;verticalAlign=top;spacing=-3;" vertex="1" parent="1">
          <mxGeometry x="385" y="170" width="55" height="50" as="geometry" />
        </mxCell>
        <mxCell id="ydAQ1urp5yznKoa1_box-33" value="i" style="rounded=0;whiteSpace=wrap;html=1;fillColor=#dae8fc;strokeColor=#6c8ebf;" vertex="1" parent="1">
          <mxGeometry x="395" y="190" width="35" height="20" as="geometry" />
        </mxCell>
        <mxCell id="ydAQ1urp5yznKoa1_box-34" value="n" style="rounded=0;whiteSpace=wrap;html=1;fillColor=#fff2cc;strokeColor=#d6b656;" vertex="1" parent="1">
          <mxGeometry x="515" y="190" width="30" height="20" as="geometry" />
        </mxCell>
        <mxCell id="ydAQ1urp5yznKoa1_box-35" value="operator" style="rounded=0;whiteSpace=wrap;html=1;verticalAlign=top;spacing=-3;" vertex="1" parent="1">
          <mxGeometry x="445" y="170" width="55" height="50" as="geometry" />
        </mxCell>
        <mxCell id="ydAQ1urp5yznKoa1_box-36" value="&amp;lt;" style="rounded=0;whiteSpace=wrap;html=1;fillColor=#e1d5e7;strokeColor=#9673a6;" vertex="1" parent="1">
          <mxGeometry x="455" y="190" width="35" height="20" as="geometry" />
        </mxCell>
        <mxCell id="ydAQ1urp5yznKoa1_box-37" value=";" style="rounded=0;whiteSpace=wrap;html=1;" vertex="1" parent="1">
          <mxGeometry x="570" y="190" width="10" height="20" as="geometry" />
        </mxCell>
        <mxCell id="ydAQ1urp5yznKoa1_box-39" value="expression" style="rounded=0;whiteSpace=wrap;html=1;verticalAlign=top;spacing=-3;" vertex="1" parent="1">
          <mxGeometry x="590" y="150" width="130" height="80" as="geometry" />
        </mxCell>
        <mxCell id="ydAQ1urp5yznKoa1_box-41" value="identifier" style="rounded=0;whiteSpace=wrap;html=1;verticalAlign=top;spacing=-3;" vertex="1" parent="1">
          <mxGeometry x="595" y="170" width="55" height="50" as="geometry" />
        </mxCell>
        <mxCell id="ydAQ1urp5yznKoa1_box-42" value="i" style="rounded=0;whiteSpace=wrap;html=1;fillColor=#dae8fc;strokeColor=#6c8ebf;" vertex="1" parent="1">
          <mxGeometry x="605" y="190" width="35" height="20" as="geometry" />
        </mxCell>
        <mxCell id="ydAQ1urp5yznKoa1_box-44" value="operator" style="rounded=0;whiteSpace=wrap;html=1;verticalAlign=top;spacing=-3;" vertex="1" parent="1">
          <mxGeometry x="655" y="170" width="55" height="50" as="geometry" />
        </mxCell>
        <mxCell id="ydAQ1urp5yznKoa1_box-45" value="++" style="rounded=0;whiteSpace=wrap;html=1;fillColor=#e1d5e7;strokeColor=#9673a6;" vertex="1" parent="1">
          <mxGeometry x="665" y="190" width="35" height="20" as="geometry" />
        </mxCell>
        <mxCell id="ydAQ1urp5yznKoa1_box-46" value=")" style="rounded=0;whiteSpace=wrap;html=1;" vertex="1" parent="1">
          <mxGeometry x="730" y="190" width="10" height="20" as="geometry" />
        </mxCell>
        <mxCell id="ydAQ1urp5yznKoa1_box-48" value="{" style="rounded=0;whiteSpace=wrap;html=1;" vertex="1" parent="1">
          <mxGeometry x="177.5" y="380" width="10" height="20" as="geometry" />
        </mxCell>
        <mxCell id="ydAQ1urp5yznKoa1_box-49" value="identifier" style="rounded=0;whiteSpace=wrap;html=1;verticalAlign=top;spacing=-3;" vertex="1" parent="1">
          <mxGeometry x="210" y="360" width="80" height="50" as="geometry" />
        </mxCell>
        <mxCell id="ydAQ1urp5yznKoa1_box-50" value="printf" style="rounded=0;whiteSpace=wrap;html=1;fillColor=#dae8fc;strokeColor=#6c8ebf;" vertex="1" parent="1">
          <mxGeometry x="220" y="380" width="60" height="20" as="geometry" />
        </mxCell>
        <mxCell id="ydAQ1urp5yznKoa1_box-51" value="(" style="rounded=0;whiteSpace=wrap;html=1;" vertex="1" parent="1">
          <mxGeometry x="302.5" y="380" width="10" height="20" as="geometry" />
        </mxCell>
        <mxCell id="ydAQ1urp5yznKoa1_box-52" value=")" style="rounded=0;whiteSpace=wrap;html=1;" vertex="1" parent="1">
          <mxGeometry x="575" y="375" width="10" height="20" as="geometry" />
        </mxCell>
        <mxCell id="ydAQ1urp5yznKoa1_box-53" value=";" style="rounded=0;whiteSpace=wrap;html=1;" vertex="1" parent="1">
          <mxGeometry x="595" y="375" width="10" height="20" as="geometry" />
        </mxCell>
        <mxCell id="ydAQ1urp5yznKoa1_box-59" value="%d" style="rounded=0;whiteSpace=wrap;html=1;fillColor=#fff2cc;strokeColor=#d6b656;" vertex="1" parent="1">
          <mxGeometry x="382.5" y="380" width="30" height="20" as="geometry" />
        </mxCell>
        <mxCell id="ydAQ1urp5yznKoa1_box-60" value="&quot;" style="rounded=0;whiteSpace=wrap;html=1;" vertex="1" parent="1">
          <mxGeometry x="360" y="380" width="10" height="20" as="geometry" />
        </mxCell>
        <mxCell id="ydAQ1urp5yznKoa1_box-61" value="&quot;" style="rounded=0;whiteSpace=wrap;html=1;" vertex="1" parent="1">
          <mxGeometry x="425" y="380" width="10" height="20" as="geometry" />
        </mxCell>
        <mxCell id="ydAQ1urp5yznKoa1_box-63" value="," style="rounded=0;whiteSpace=wrap;html=1;" vertex="1" parent="1">
          <mxGeometry x="465" y="380" width="10" height="20" as="geometry" />
        </mxCell>
        <mxCell id="ydAQ1urp5yznKoa1_box-64" value="identifier" style="rounded=0;whiteSpace=wrap;html=1;verticalAlign=top;spacing=-3;" vertex="1" parent="1">
          <mxGeometry x="487.5" y="360" width="50" height="50" as="geometry" />
        </mxCell>
        <mxCell id="ydAQ1urp5yznKoa1_box-65" value="j" style="rounded=0;whiteSpace=wrap;html=1;fillColor=#dae8fc;strokeColor=#6c8ebf;" vertex="1" parent="1">
          <mxGeometry x="497.5" y="380" width="30" height="20" as="geometry" />
        </mxCell>
        <mxCell id="ydAQ1urp5yznKoa1_box-68" value="}" style="rounded=0;whiteSpace=wrap;html=1;" vertex="1" parent="1">
          <mxGeometry x="622.5" y="375" width="10" height="20" as="geometry" />
        </mxCell>
        <mxCell id="ydAQ1urp5yznKoa1_box-70" value="return" style="rounded=0;whiteSpace=wrap;html=1;fillColor=#d5e8d4;strokeColor=#82b366;" vertex="1" parent="1">
          <mxGeometry x="100" y="530" width="40" height="20" as="geometry" />
        </mxCell>
        <mxCell id="ydAQ1urp5yznKoa1_box-71" value="number" style="rounded=0;whiteSpace=wrap;html=1;verticalAlign=top;spacing=-3;" vertex="1" parent="1">
          <mxGeometry x="150" y="510" width="50" height="50" as="geometry" />
        </mxCell>
        <mxCell id="ydAQ1urp5yznKoa1_box-72" value="0" style="rounded=0;whiteSpace=wrap;html=1;fillColor=#fff2cc;strokeColor=#d6b656;" vertex="1" parent="1">
          <mxGeometry x="160" y="530" width="30" height="20" as="geometry" />
        </mxCell>
        <mxCell id="ydAQ1urp5yznKoa1_box-73" value=";" style="rounded=0;whiteSpace=wrap;html=1;" vertex="1" parent="1">
          <mxGeometry x="207.5" y="530" width="10" height="20" as="geometry" />
        </mxCell>
        <mxCell id="ydAQ1urp5yznKoa1_box-76" value="type" style="rounded=0;whiteSpace=wrap;html=1;verticalAlign=top;spacing=-3;" vertex="1" parent="1">
          <mxGeometry x="80" y="-100" width="60" height="50" as="geometry" />
        </mxCell>
        <mxCell id="ydAQ1urp5yznKoa1_box-77" value="int" style="rounded=0;whiteSpace=wrap;html=1;fillColor=#d5e8d4;strokeColor=#82b366;" vertex="1" parent="1">
          <mxGeometry x="90" y="-80" width="40" height="20" as="geometry" />
        </mxCell>
        <mxCell id="ydAQ1urp5yznKoa1_box-78" value="identifier" style="rounded=0;whiteSpace=wrap;html=1;verticalAlign=top;spacing=-3;" vertex="1" parent="1">
          <mxGeometry x="150" y="-100" width="55" height="50" as="geometry" />
        </mxCell>
        <mxCell id="ydAQ1urp5yznKoa1_box-79" value="main" style="rounded=0;whiteSpace=wrap;html=1;fillColor=#dae8fc;strokeColor=#6c8ebf;" vertex="1" parent="1">
          <mxGeometry x="160" y="-80" width="35" height="20" as="geometry" />
        </mxCell>
        <mxCell id="ydAQ1urp5yznKoa1_box-80" value="parameters-list" style="rounded=0;whiteSpace=wrap;html=1;verticalAlign=top;spacing=-3;" vertex="1" parent="1">
          <mxGeometry x="227.5" y="-100" width="85" height="50" as="geometry" />
        </mxCell>
        <mxCell id="ydAQ1urp5yznKoa1_box-81" value="(" style="rounded=0;whiteSpace=wrap;html=1;" vertex="1" parent="1">
          <mxGeometry x="210" y="-80" width="10" height="20" as="geometry" />
        </mxCell>
        <mxCell id="ydAQ1urp5yznKoa1_box-82" value=")" style="rounded=0;whiteSpace=wrap;html=1;" vertex="1" parent="1">
          <mxGeometry x="320" y="-80" width="10" height="20" as="geometry" />
        </mxCell>
        <mxCell id="ydAQ1urp5yznKoa1_box-85" value="{" style="rounded=0;whiteSpace=wrap;html=1;" vertex="1" parent="1">
          <mxGeometry x="342.5" y="-80" width="10" height="20" as="geometry" />
        </mxCell>
        <mxCell id="ydAQ1urp5yznKoa1_box-86" value="}" style="rounded=0;whiteSpace=wrap;html=1;" vertex="1" parent="1">
          <mxGeometry x="72.5" y="590" width="10" height="20" as="geometry" />
        </mxCell>
      </root>
    </mxGraphModel>
  </diagram>
</mxfile>
